<svg width="156" height="156" viewBox="0 0 156 156" fill="none" xmlns="http://www.w3.org/2000/svg">
<rect width="156" height="156" fill="#C4C4C4"/>
<path opacity="0.4" d="M78.0001 85.1793C64.7658 85.1793 54.0374 74.4508 54.0374 61.2166C54.0374 47.9824 64.7658 37.2539 78.0001 37.2539C91.2343 37.2539 101.963 47.9824 101.963 61.2166C101.963 74.4508 91.2343 85.1793 78.0001 85.1793ZM78.0001 77.8061C87.1622 77.8061 94.5896 70.3788 94.5896 61.2166C94.5896 52.0544 87.1622 44.627 78.0001 44.627C68.8379 44.627 61.4105 52.0544 61.4105 61.2166C61.4105 70.3788 68.8379 77.8061 78.0001 77.8061ZM44.8209 122.045H37.4478V107.299C37.4478 97.1209 45.704 88.8658 55.8778 88.8658H100.122C110.296 88.8658 118.552 97.1302 118.552 107.299V122.045H111.179V107.299C111.179 101.201 106.222 96.239 100.122 96.239H55.8778C49.7759 96.239 44.8209 101.193 44.8209 107.299V122.045Z" fill="black"/>
</svg>
