<svg width="71" height="71" viewBox="0 0 71 71" fill="none" xmlns="http://www.w3.org/2000/svg">
<path d="M35.1227 0C15.7554 0 0 15.7554 0 35.1227C0 54.49 15.7554 70.2454 35.1227 70.2454C54.49 70.2454 70.2454 54.49 70.2454 35.1227C70.2454 15.7554 54.49 0 35.1227 0ZM35.1227 67.5447C17.2457 67.5447 2.70065 52.9997 2.70065 35.1227C2.70065 17.2457 17.2457 2.70065 35.1227 2.70065C52.9997 2.70065 67.5447 17.2457 67.5447 35.1227C67.5447 52.9997 52.9997 67.5447 35.1227 67.5447Z" fill="#EB5C98"/>
<path d="M35.1227 49.9836C34.3751 49.9836 33.7723 50.5864 33.7723 51.334V54.0346C33.7723 54.7822 34.3751 55.3849 35.1227 55.3849C35.8702 55.3849 36.473 54.7822 36.473 54.0346V51.334C36.473 50.5864 35.8702 49.9836 35.1227 49.9836Z" fill="#EB5C98"/>
<path d="M35.2745 12.1601C35.2223 12.1601 35.1724 12.1577 35.1202 12.1577C32.263 12.1577 29.5742 13.2589 27.5356 15.2713C25.4615 17.317 24.3176 20.0508 24.3176 22.9651C24.3176 23.7126 24.9204 24.3154 25.668 24.3154C26.4155 24.3154 27.0183 23.7126 27.0183 22.9651C27.0183 20.7794 27.875 18.729 29.4318 17.1936C30.9886 15.6581 33.0627 14.8085 35.2389 14.8607C39.5082 14.9201 43.1676 18.5795 43.2269 22.8488C43.2673 25.6633 41.8766 28.2548 39.5106 29.7808C35.9176 32.0993 33.7723 36.1954 33.7723 40.74V44.5798C33.7723 45.3273 34.3751 45.9301 35.1226 45.9301C35.8701 45.9301 36.4729 45.3273 36.4729 44.5798V40.74C36.4729 37.1708 38.1958 33.8436 40.9748 32.0519C44.1287 30.0181 45.9822 26.5628 45.9276 22.8108C45.8469 17.0203 41.0674 12.2408 35.2745 12.1601Z" fill="#EB5C98"/>
</svg>
