<svg width="72" height="72" viewBox="0 0 72 72" fill="none" xmlns="http://www.w3.org/2000/svg">
<path d="M68.2163 32.0376H64.0752V24.6001C64.0752 22.8131 62.6204 21.3584 60.8335 21.3584H56.9557V18.494L56.3696 17.9078C56.3672 17.9078 56.3672 17.9055 56.3672 17.9055L47.7099 9.24819L38.4617 0H9.49262V13.0524H3.24173C1.45474 13.0524 0 14.5071 0 16.2941V68.1357H0.00711947C0 68.8049 0.208838 69.4575 0.626513 70.0057C1.20794 70.7651 2.08838 71.1994 3.04476 71.1994H56.1536C57.5253 71.1994 58.7332 70.2763 59.0607 69.047L71.1947 35.7753V35.5665C71.1947 33.5208 69.9416 32.0376 68.2163 32.0376ZM60.8335 23.7316C61.3128 23.7316 61.702 24.1208 61.702 24.6001V32.0376H56.9557V23.7316H60.8335ZM39.1571 4.05335L52.9047 17.7987H39.1571V4.05335ZM11.8658 2.37316H36.7839V20.1718H54.5826V21.3584V32.0376H15.1051C14.9366 32.0376 14.7681 32.0518 14.6044 32.0803C13.4487 32.2725 12.4852 33.115 12.198 34.19L11.8658 35.1061V13.0524V2.37316ZM2.37316 16.2941C2.37316 15.8147 2.76473 15.4255 3.24173 15.4255H9.49262V41.5729L2.37316 60.9901V16.2941ZM56.8015 68.3303C56.7232 68.6198 56.4574 68.8239 56.156 68.8239H3.04476C2.75523 68.8239 2.58674 68.6578 2.51317 68.5605C2.43723 68.4632 2.32332 68.2567 2.36604 68.0763L9.49262 48.531V48.5382L14.4288 35.0064L14.4596 34.9091C14.5379 34.6196 14.8061 34.4155 15.1051 34.4155H54.5826H56.9557H64.0752H68.2163C68.6673 34.4155 68.7835 35.0634 68.812 35.3885L56.8015 68.3303Z" fill="#EB5C98"/>
<path d="M18.9853 20.172H30.8511C31.5061 20.172 32.0376 19.6404 32.0376 18.9854C32.0376 18.3304 31.5061 17.7988 30.8511 17.7988H18.9853C18.3303 17.7988 17.7987 18.3304 17.7987 18.9854C17.7987 19.6428 18.3303 20.172 18.9853 20.172Z" fill="#EB5C98"/>
<path d="M18.9853 11.8658H30.8511C31.5061 11.8658 32.0376 11.3366 32.0376 10.6793C32.0376 10.0219 31.5061 9.49268 30.8511 9.49268H18.9853C18.3303 9.49268 17.7987 10.0219 17.7987 10.6793C17.7987 11.3366 18.3303 11.8658 18.9853 11.8658Z" fill="#EB5C98"/>
<path d="M18.9853 28.4779H47.4632C48.1181 28.4779 48.6497 27.9463 48.6497 27.2913C48.6497 26.6363 48.1181 26.1047 47.4632 26.1047H18.9853C18.3303 26.1047 17.7987 26.6363 17.7987 27.2913C17.7987 27.9463 18.3303 28.4779 18.9853 28.4779Z" fill="#EB5C98"/>
</svg>
