<svg width="71" height="65" viewBox="0 0 71 65" fill="none" xmlns="http://www.w3.org/2000/svg">
<path d="M65.3937 51.7895L53.8819 46.8133C53.6107 46.678 53.3111 46.348 53.0518 45.9064L60.7367 45.9016C60.8698 45.9135 64.0403 46.2031 66.5806 45.1134C67.5438 44.7003 68.2598 43.8812 68.5476 42.8722C68.8377 41.8513 68.6546 40.7711 68.0457 39.9069C65.848 36.7873 60.7224 28.6321 60.5606 20.363C60.5583 20.2205 60.0921 6.15615 46.178 6.04219C44.1302 6.0588 42.2345 6.40543 40.5125 7.04407C40.1367 6.08729 39.5825 5.09016 38.7596 4.15237C36.3407 1.39599 32.4162 0 27.0908 0C21.7654 0 17.8385 1.39599 15.4196 4.15C12.6321 7.32422 12.8913 11.1751 12.9579 11.8208V18.0743C12.2039 18.9314 11.7806 20.0282 11.7806 21.1607V25.8639C11.7806 27.2955 12.4323 28.6298 13.543 29.5201C14.6228 33.784 16.88 36.9986 17.6697 38.029V41.9202C17.6697 43.0574 17.0489 44.102 16.0475 44.6481L5.53946 50.3697C2.1216 52.2311 0 55.7994 0 59.6835V64.6644H51.8269H54.1816H70.6715V60.3174C70.6739 56.6826 68.6498 53.4158 65.3937 51.7895ZM51.8269 62.314H2.35469V59.6835C2.35469 56.6612 4.00535 53.8835 6.66448 52.4352L17.1726 46.7136C18.9303 45.7544 20.022 43.9168 20.022 41.9202V37.1956L19.7484 36.868C19.7199 36.8348 16.8324 33.3472 15.7312 28.5609L15.6242 28.0956L15.2222 27.8368C14.5396 27.3976 14.1329 26.6592 14.1329 25.8663V21.1631C14.1329 20.5031 14.4135 19.8882 14.9225 19.43L15.3102 19.081V11.7567L15.3007 11.6024C15.2983 11.5716 14.8964 8.31186 17.1916 5.69794C19.1443 3.47574 22.4742 2.3504 27.0908 2.3504C31.6908 2.3504 35.0135 3.46862 36.9686 5.67657C37.9414 6.77342 38.429 7.9961 38.6739 9.04785C38.693 9.13094 38.7096 9.21166 38.7263 9.29238C38.7429 9.37548 38.7596 9.45857 38.7738 9.53929C38.7881 9.63188 38.8024 9.71735 38.8143 9.8052C38.8238 9.86693 38.8333 9.93103 38.8404 9.99038C38.8571 10.1352 38.8714 10.2777 38.8809 10.4082C38.8809 10.4177 38.8809 10.4272 38.8809 10.4391C38.888 10.5649 38.8951 10.686 38.8975 10.7952C38.8975 10.8166 38.8975 10.8332 38.8975 10.8546C38.8999 10.9519 38.8999 11.0445 38.8975 11.1252C38.8975 11.1371 38.8975 11.149 38.8975 11.1608C38.8928 11.4362 38.8737 11.6024 38.8737 11.6048L38.8642 19.0786L39.2519 19.43C39.7609 19.8882 40.0416 20.5031 40.0416 21.1631V25.8663C40.0416 26.8919 39.3685 27.7917 38.3671 28.0979L37.7796 28.2784L37.5917 28.86C36.8045 31.3078 35.6818 33.5656 34.2547 35.5765C33.9051 36.0703 33.565 36.5095 33.2677 36.8443L32.9751 37.179V42.0294C32.9751 42.3262 33.0037 42.6182 33.0512 42.9055C33.0608 42.9672 33.0774 43.0265 33.0893 43.0859C33.1345 43.3233 33.1963 43.5536 33.2724 43.7791C33.2891 43.8314 33.3081 43.8836 33.3295 43.9358C33.4223 44.1827 33.5293 44.4202 33.653 44.6481C33.6673 44.6742 33.6792 44.7003 33.6934 44.7264C33.8647 45.0279 34.0621 45.3128 34.288 45.5764L34.5568 45.9064H34.602C35.0063 46.3028 35.4701 46.6495 35.9982 46.913L47.2507 52.5278C50.0716 53.9333 51.8221 56.7633 51.8221 59.9114V62.314H51.8269ZM68.3168 62.314H54.1816V59.9114C54.1816 55.8683 51.9315 52.2334 48.3091 50.4267L40.2318 46.3931C40.4316 45.9396 40.4578 45.4197 40.2818 44.9187C39.994 44.0901 39.24 43.556 38.3624 43.556H35.7508C35.6961 43.461 35.6604 43.3565 35.6176 43.2545C35.5581 43.1191 35.4892 42.9862 35.4511 42.8437C35.3798 42.5826 35.337 42.3095 35.337 42.0294V38.0551C35.6057 37.7251 35.8911 37.35 36.1837 36.9369C37.6441 34.8785 38.8119 32.5898 39.6634 30.1183C41.3259 29.3586 42.4034 27.7181 42.4034 25.8663V21.1631C42.4034 20.0306 41.98 18.9338 41.226 18.0767V11.8232C41.257 11.5288 41.3236 10.5673 41.1262 9.309C42.6436 8.71309 44.3418 8.40683 46.1804 8.39258C57.7731 8.48755 58.1941 19.9285 58.206 20.4105C58.3796 29.3254 63.7954 37.9601 66.1168 41.2578C66.3165 41.5403 66.376 41.8941 66.2809 42.2312C66.2262 42.4235 66.0716 42.7749 65.6506 42.9553C63.6717 43.8053 60.9864 43.5655 60.8484 43.5583H52.7402C51.9839 43.5583 51.2917 43.9429 50.8922 44.5863C50.4949 45.2274 50.4569 46.0108 50.7899 46.6827C51.1585 47.4234 51.8102 48.4158 52.8806 48.9476L64.3614 53.912C66.7994 55.1418 68.3121 57.5943 68.3121 60.3221V62.314H68.3168Z" fill="#EB5C98"/>
</svg>
