<svg width="71" height="71" viewBox="0 0 71 71" fill="none" xmlns="http://www.w3.org/2000/svg">
<path fill-rule="evenodd" clip-rule="evenodd" d="M30.4973 11.4173V7.15884C30.4973 4.80696 28.6116 2.90039 26.2854 2.90039C23.9593 2.90039 22.0735 4.80696 22.0735 7.15884C22.0735 9.51072 23.9593 11.4173 26.2854 11.4173H30.4973ZM26.2854 0C22.3749 0 19.2048 3.20512 19.2048 7.15884C19.2048 11.1126 22.3749 14.3177 26.2854 14.3177H33.366V7.15884C33.366 3.20512 30.1959 0 26.2854 0Z" fill="#7FD1DD"/>
<path fill-rule="evenodd" clip-rule="evenodd" d="M59.7075 30.0499L63.9194 30.0499C66.2456 30.0499 68.1313 28.1433 68.1313 25.7914C68.1313 23.4395 66.2456 21.533 63.9194 21.533C61.5932 21.533 59.7075 23.4395 59.7075 25.7914L59.7075 30.0499ZM71 25.7914C71 21.8377 67.8299 18.6326 63.9194 18.6326C60.0089 18.6326 56.8388 21.8377 56.8388 25.7914L56.8388 32.9502L63.9194 32.9502C67.8299 32.9502 71 29.7451 71 25.7914Z" fill="#49C29D"/>
<path fill-rule="evenodd" clip-rule="evenodd" d="M11.2925 39.381L7.0806 39.381C4.75443 39.381 2.86869 41.2876 2.86869 43.6395C2.86869 45.9914 4.75442 47.898 7.0806 47.898C9.40678 47.898 11.2925 45.9914 11.2925 43.6395L11.2925 39.381ZM8.63121e-07 43.6395C3.86432e-07 47.5932 3.17009 50.7983 7.0806 50.7983C10.9911 50.7983 14.1612 47.5932 14.1612 43.6395L14.1612 36.4807L7.0806 36.4807C3.1701 36.4807 1.33981e-06 39.6858 8.63121e-07 43.6395Z" fill="#D40D0C"/>
<path fill-rule="evenodd" clip-rule="evenodd" d="M39.7268 59.5827L39.7268 63.8412C39.7268 66.193 41.6125 68.0996 43.9387 68.0996C46.2649 68.0996 48.1506 66.193 48.1506 63.8412C48.1506 61.4893 46.2649 59.5827 43.9387 59.5827L39.7268 59.5827ZM43.9387 71C47.8492 71 51.0193 67.7949 51.0193 63.8412C51.0193 59.8874 47.8492 56.6823 43.9387 56.6823L36.8581 56.6823L36.8581 63.8412C36.8581 67.7949 40.0282 71 43.9387 71Z" fill="#EBB423"/>
<path fill-rule="evenodd" clip-rule="evenodd" d="M48.1506 26.9682V6.76658C48.1506 4.63134 46.4386 2.90039 44.3267 2.90039C42.2148 2.90039 40.5027 4.63134 40.5027 6.76658V26.9682C40.5027 29.1035 42.2148 30.8344 44.3267 30.8344C46.4386 30.8344 48.1506 29.1035 48.1506 26.9682ZM44.3267 0C40.6304 0 37.634 3.02951 37.634 6.76658V26.9682C37.634 30.7053 40.6304 33.7348 44.3267 33.7348C48.0229 33.7348 51.0193 30.7053 51.0193 26.9682V6.76658C51.0193 3.0295 48.0229 0 44.3267 0Z" fill="#49C29D"/>
<path fill-rule="evenodd" clip-rule="evenodd" d="M44.3265 47.8979L64.3074 47.8979C66.4193 47.8979 68.1313 46.1669 68.1313 44.0317C68.1313 41.8965 66.4193 40.1655 64.3074 40.1655L44.3265 40.1655C42.2146 40.1655 40.5026 41.8965 40.5026 44.0317C40.5026 46.1669 42.2146 47.8979 44.3265 47.8979ZM71 44.0317C71 40.2946 68.0036 37.2651 64.3074 37.2651L44.3265 37.2651C40.6303 37.2651 37.6339 40.2946 37.6339 44.0317C37.6339 47.7688 40.6303 50.7983 44.3265 50.7983L64.3074 50.7983C68.0036 50.7983 71 47.7688 71 44.0317Z" fill="#EBB423"/>
<path fill-rule="evenodd" clip-rule="evenodd" d="M26.6735 21.533L6.69263 21.533C4.58072 21.533 2.86869 23.264 2.86869 25.3992C2.86869 27.5344 4.58072 29.2654 6.69263 29.2654L26.6735 29.2654C28.7854 29.2654 30.4974 27.5344 30.4974 25.3992C30.4974 23.264 28.7854 21.533 26.6735 21.533ZM8.15826e-07 25.3992C3.65258e-07 29.1363 2.9964 32.1658 6.69263 32.1658L26.6735 32.1658C30.3697 32.1658 33.3661 29.1363 33.3661 25.3992C33.3661 21.6621 30.3697 18.6326 26.6735 18.6326L6.69263 18.6326C2.99639 18.6326 1.2664e-06 21.6621 8.15826e-07 25.3992Z" fill="#7FD1DD"/>
<path fill-rule="evenodd" clip-rule="evenodd" d="M22.0735 44.0318L22.0735 64.2334C22.0735 66.3687 23.7856 68.0996 25.8975 68.0996C28.0094 68.0996 29.7214 66.3687 29.7214 64.2334L29.7214 44.0318C29.7214 41.8965 28.0094 40.1656 25.8975 40.1656C23.7856 40.1656 22.0735 41.8965 22.0735 44.0318ZM25.8975 71C29.5937 71 32.5901 67.9705 32.5901 64.2334L32.5901 44.0318C32.5901 40.2947 29.5937 37.2652 25.8975 37.2652C22.2012 37.2652 19.2048 40.2947 19.2048 44.0318L19.2048 64.2334C19.2048 67.9705 22.2012 71 25.8975 71Z" fill="#D40D0C"/>
</svg>
