<svg fill="none" height="53" viewBox="0 0 72 53" width="72" xmlns="http://www.w3.org/2000/svg"><g fill="#eb5c98"><path clip-rule="evenodd" d="m26.7973 33.5726-4.3074-2.2088v-.4608c1.9278-1.0567 3.2831-2.7976 4.0401-5.1869 1.1472-.6103 1.8804-1.8002 1.8804-3.135v-1.1875c0-1.0995-.5109-2.1207-1.3624-2.7929-.738-4.4934-3.8603-6.7711-9.2912-6.7711-.1286 0-.2555.0024-.3806.0071-.0648.0024-.1292.0056-.1931.0093-.0599.0035-.1194.0075-.1785.0122-1.0218.0854-2.5191-.0048-3.8153-.8787-.4849-.3278-.8492-.6461-1.0833-.9429-.3974-.51062-1.0668-.68874-1.6605-.44417-.59374.24468-.94381.84077-.86813 1.48207.04969.4441.12537.9618.23653 1.5294.13719.693.1923.9716.14576 1.2319-.03133.175-.10865.3418-.23801.6206l-.04221.0919c-.11261.2455-.24734.539-.40248.9222-.39263.9642-.66939 2.0187-.83024 3.1468-.83969.6722-1.34352 1.6863-1.34352 2.7763v1.1875c0 1.3325.73326 2.5223 1.88046 3.135.75693 2.3916 2.11224 4.1325 4.03774 5.1869v.4466l-4.46112 2.2087c-1.62974.8906-2.64213 2.603-2.64213 4.4673v1.5746c0 .9548 0 3.1872 11.83865 3.1872 11.8363 0 11.8363-2.2324 11.8363-3.1872v-1.4796c0-1.938-1.0715-3.6789-2.7958-4.548zm.4281 5.7593c-.738.4512-3.742 1.0782-9.4709 1.0782-5.7266 0-8.73062-.627-9.47098-1.0782v-1.3063c0-.9927.53931-1.9047 1.36245-2.3559l4.56513-2.2587c.712-.349 1.1709-1.09 1.1709-1.888v-2.1422l-.7144-.3088c-1.7953-.7767-2.9638-2.2586-3.5693-4.5338l-.1679-.6341-.6221-.1949c-.4944-.1566-.8421-.6174-.8421-1.1256v-1.1875c0-.4299.24601-.8289.641-1.0402l.5559-.2969.0662-.6295c.1183-1.1138.3643-2.1422.7356-3.0541.1585-.3871.291-.6745.3998-.912.4021-.8645.5464-1.311.447-2.2277 1.3933.798 3.0656 1.1376 4.8798.9999.1821-.0167.3713-.0238.5653-.0238 4.4327 0 6.5947 1.6126 7.0181 5.2273l.0733.6199.5511.2921c.395.2113.6434.6127.6434 1.045v1.1875c0 .5082-.3477.9713-.8421 1.1256l-.6221.1949-.1703.6341c-.6055 2.2728-1.774 3.7548-3.5693 4.5338l-.7143.3111v2.1517c0 .7957.4375 1.5129 1.1401 1.8715l4.4681 2.2918c.9202.4608 1.4926 1.3918 1.4926 2.4225z" fill-rule="evenodd"/><path d="m47.3476 17.8289h-11.8363c-.6553 0-1.1827-.5321-1.1827-1.1875 0-.6555.5274-1.1875 1.1827-1.1875h11.8363c.6528 0 1.1826.5296 1.1826 1.1875 0 .6554-.5275 1.1875-1.1826 1.1875z"/><path d="m52.083 17.8289h1.1827c.6552 0 1.1827-.5321 1.1827-1.1875 0-.6579-.5298-1.1875-1.1827-1.1875h-1.1827c-.6552 0-1.185.532-1.185 1.1875.0023.6554.5322 1.1875 1.185 1.1875z"/><path d="m35.5113 35.6579h1.1826c.6553 0 1.1827.532 1.1827 1.1874 0 .6555-.5274 1.1875-1.1827 1.1875h-1.1826c-.6529 0-1.1827-.532-1.1827-1.1875 0-.6554.5274-1.1874 1.1827-1.1874z"/><path d="m43.7971 35.6579h-2.3677c-.6552 0-1.185.532-1.185 1.1874 0 .6555.5298 1.1875 1.185 1.1875h2.3677c.6553 0 1.1827-.532 1.1827-1.1875 0-.6554-.5274-1.1874-1.1827-1.1874z"/><path d="m48.5326 35.6579h1.1827c.6552 0 1.1827.532 1.1827 1.1874 0 .6555-.5275 1.1875-1.1827 1.1875h-1.1827c-.6528 0-1.1827-.532-1.1827-1.1875 0-.6554.5275-1.1874 1.1827-1.1874z"/><path d="m56.8185 35.6579h-2.3678c-.6552 0-1.185.532-1.185 1.1874 0 .6555.5298 1.1875 1.185 1.1875h2.3678c.6552 0 1.1827-.532 1.1827-1.1875 0-.6554-.5275-1.1874-1.1827-1.1874z"/><path d="m60.3713 36.8453c0-.3087.1277-.6175.3429-.843.4376-.4394 1.23-.4394 1.6795 0 .2128.2232.3429.5343.3429.843s-.1301.6176-.3429.8431c-.2248.2139-.5322.3444-.8398.3444-.3075 0-.6173-.1305-.8397-.3444-.2129-.2255-.3429-.5344-.3429-.8431z"/><path d="m61.5539 22.5836h-26.0426c-.6553 0-1.1827.532-1.1827 1.1875 0 .6578.5298 1.1898 1.1827 1.1898h26.0426c.6553 0 1.1851-.532 1.1851-1.1898 0-.6579-.5298-1.1875-1.1851-1.1875z"/><path d="m35.5113 29.7132h26.0426c.6553 0 1.1851.5321 1.1851 1.1875 0 .6555-.5298 1.1875-1.1851 1.1875h-26.0426c-.6529 0-1.1827-.5296-1.1827-1.1875 0-.6554.5274-1.1875 1.1827-1.1875z"/><path clip-rule="evenodd" d="m66.0316 0h-61.04068c-2.75329 0-4.99092 2.24915-4.99092 5.01121v42.27449c0 2.7645 2.24 5.0112 4.99092 5.0112h61.04308c2.7509 0 4.9909-2.2491 4.9909-5.0112v-42.27217c0-2.76438-2.24-5.01353-4.9933-5.01353zm2.6255 47.2857c0 1.4535-1.1755 2.6363-2.6231 2.6363h-61.04308c-1.4476 0-2.62319-1.1828-2.62319-2.6363v-42.27217c0-1.45339 1.17559-2.63624 2.62319-2.63624h61.04308c1.4476 0 2.6231 1.18041 2.6231 2.63624z" fill-rule="evenodd"/></g></svg>