<svg width="106" height="105" viewBox="0 0 106 105" fill="none" xmlns="http://www.w3.org/2000/svg">
<path d="M67.9024 99.9742C60.2874 107.589 56.4464 89.9332 52.3464 85.8322C48.2454 81.7322 48.2664 77.8912 55.8824 70.2762C63.4974 62.6612 72.9954 59.8122 77.0954 63.9122C81.1954 68.0122 75.5184 92.3592 67.9024 99.9742Z" fill="#BC87FF"/>
<path d="M64.2512 103.858C59.6242 103.858 56.7832 98.0931 54.2762 93.0071C53.1212 90.6641 51.9272 88.2411 50.9322 87.2461C49.2312 85.5451 47.0512 82.8421 47.7532 79.0111C48.2862 76.1021 50.3572 72.9721 54.4672 68.8621C59.9102 63.4191 66.6052 60.0371 71.9392 60.0371C74.6272 60.0371 76.8992 60.8881 78.5082 62.4981C82.0612 66.0501 79.9192 76.6921 78.8332 81.1031C77.1332 88.0081 73.7402 96.9631 69.3152 101.388C67.6782 103.027 65.9732 103.858 64.2512 103.858ZM71.9402 64.0371C67.6932 64.0371 61.9452 67.0411 57.2962 71.6901C53.8902 75.0961 52.0562 77.7271 51.6882 79.7331C51.4782 80.8791 51.5832 82.2411 53.7602 84.4181C55.2222 85.8801 56.4462 88.3631 57.8642 91.2391C59.5562 94.6721 62.1132 99.8591 64.2512 99.8591C65.0272 99.8591 65.8962 99.1531 66.4882 98.5611C69.6542 95.3951 72.9762 88.1671 74.9502 80.1481C77.0692 71.5401 76.6532 66.2991 75.6812 65.3271C74.8252 64.4711 73.5662 64.0371 71.9402 64.0371Z" fill="#3C663E"/>
<path d="M4.9706 36.8659C-2.6444 44.4809 15.0126 48.3219 19.1126 52.4219C23.2136 56.5229 27.0536 56.5019 34.6686 48.8859C42.2836 41.2709 45.1326 31.7729 41.0326 27.6729C37.1676 23.8079 12.3516 29.4849 4.9706 36.8659Z" fill="#BC87FF"/>
<path d="M24.4735 57.1499C24.4725 57.1499 24.4725 57.1499 24.4735 57.1499C21.3715 57.1499 19.1215 55.2579 17.6995 53.8359C16.7045 52.8409 14.2814 51.6469 11.9384 50.4919C6.97445 48.0449 1.84045 45.5149 1.15945 41.3889C0.826451 39.3729 1.63345 37.3749 3.55745 35.4509C9.66545 29.3419 26.1625 24.4229 35.7495 24.4229C39.0215 24.4229 41.2135 25.0239 42.4475 26.2579C44.9755 28.7849 45.5835 32.7909 44.1605 37.5349C42.8655 41.8529 39.9965 46.3869 36.0835 50.2989C31.3465 55.0379 27.7655 57.1499 24.4735 57.1499ZM35.7485 28.4239C27.1495 28.4239 11.6005 33.0648 6.38445 38.2799C5.42445 39.2398 4.99345 40.0679 5.10445 40.7379C5.45145 42.8359 10.2225 45.1878 13.7065 46.9049C16.5815 48.3219 19.0655 49.5459 20.5275 51.0089C22.0095 52.4899 23.2265 53.1519 24.4735 53.1519C26.5615 53.1519 29.4345 51.2949 33.2555 47.4739C36.7085 44.0209 39.2205 40.0839 40.3295 36.3889C41.2955 33.1679 41.0375 30.5069 39.6195 29.0899C39.6115 29.0809 38.9185 28.4239 35.7485 28.4239Z" fill="#3C663E"/>
<path d="M28.0083 89.5382C24.5763 92.9712 13.0283 97.7962 9.31726 94.0862C5.60726 90.3762 11.1413 79.5352 14.5723 76.1032C18.0053 72.6712 23.7953 72.8962 27.5053 76.6052C31.2163 80.3152 31.4413 86.1052 28.0083 89.5382Z" fill="#FFD0E4"/>
<path d="M13.4242 98.424C10.7622 98.424 8.66721 97.6779 7.19621 96.2079C1.68521 90.6969 8.46321 77.9699 12.4512 73.9819C14.5882 71.8449 17.4752 70.6689 20.5792 70.6689C23.9052 70.6689 27.2022 72.0599 29.6272 74.4839C31.9582 76.8139 33.3092 79.8599 33.4332 83.0599C33.5612 86.3479 32.3872 89.402 30.1292 91.66C26.9372 94.852 19.1142 98.424 13.4242 98.424ZM20.5792 76.6689C19.0772 76.6689 17.6982 77.2219 16.6942 78.2249C13.1442 81.7759 9.85321 90.38 11.4392 91.966C11.6612 92.188 12.2992 92.4249 13.4252 92.4249C17.6792 92.4249 23.9182 89.3869 25.8872 87.4179C26.9502 86.3549 27.5012 84.8909 27.4392 83.2929C27.3732 81.6079 26.6442 79.9859 25.3862 78.7279C24.0772 77.4189 22.3252 76.6689 20.5792 76.6689Z" fill="#12091E"/>
<path d="M101.604 4.58684C96.2264 -0.791158 59.7354 7.56384 38.6714 28.6288C28.3644 38.9358 22.3174 48.2908 17.5444 58.4238C15.7864 61.2988 18.3804 71.0658 26.7524 79.4378C35.1244 87.8098 43.3074 89.7108 45.5934 87.4238L46.0514 87.4568C56.1834 82.6838 67.2544 77.8268 77.5614 67.5198C100.626 44.4558 106.2 9.18284 101.604 4.58684Z" fill="#BC87FF"/>
<path d="M42.7852 90.318C38.9272 90.318 32.3182 87.831 25.3382 80.851C16.6912 72.204 13.3882 61.665 15.7742 57.488C21.2082 45.974 27.8372 36.634 37.2562 27.214C54.3612 10.109 81.8672 0.999023 95.1472 0.999023C98.9812 0.999023 101.556 1.71002 103.018 3.17202C106.656 6.80902 105.063 19.119 101.871 29.705C99.2373 38.439 92.7602 55.15 78.9772 68.933C69.0202 78.891 58.2092 83.961 48.6722 88.435L46.9052 89.265C46.6952 89.364 46.4702 89.425 46.2412 89.447C45.3312 90.02 44.1552 90.318 42.7852 90.318ZM95.1472 4.99902C82.5622 4.99902 56.4252 13.702 40.0852 30.042C30.9842 39.144 24.5902 48.16 19.3542 59.275C19.3232 59.341 19.2892 59.404 19.2512 59.466C18.3112 61.003 19.9172 69.771 28.1672 78.022C33.8972 83.752 39.6382 86.317 42.7862 86.317C43.6432 86.317 44.0662 86.123 44.1812 86.008C44.5762 85.613 45.1112 85.41 45.6732 85.424L46.9742 84.813C56.6652 80.267 66.6873 75.566 76.1493 66.104C89.3142 52.939 95.5163 36.924 98.0423 28.549C101.852 15.914 101.473 7.28202 100.191 5.99902C100.022 5.83402 98.9932 4.99902 95.1472 4.99902Z" fill="#12091E"/>
<path d="M19.2623 68.2991C18.8343 68.2991 18.3993 68.2071 17.9863 68.0121C16.4873 67.3061 15.8443 65.5181 16.5503 64.0201C20.0313 56.6291 27.6843 42.4171 39.8193 30.2821C49.3493 20.7521 63.3963 12.4901 78.3603 7.61405C89.3013 4.04905 99.6623 1.75705 104.086 6.18105C105.258 7.35205 105.258 9.25205 104.086 10.4231C102.916 11.5931 101.02 11.5941 99.8483 10.4281C96.4373 7.44705 65.2253 13.3611 44.0633 34.5241C32.5713 46.0171 25.2943 59.5391 21.9783 66.5771C21.4673 67.6631 20.3883 68.2991 19.2623 68.2991Z" fill="#EADAFF"/>
<path opacity="0.2" d="M38.4214 88.8408C37.3084 88.8408 36.2384 88.2188 35.7204 87.1498C34.9974 85.6588 35.6194 83.8638 37.1104 83.1408L42.9674 80.3278C52.5804 75.8178 62.5214 71.1558 71.8604 61.8168C81.5294 52.1478 88.7564 40.7538 92.2114 29.7328C95.4034 19.5518 94.1274 14.1208 93.3004 13.2948C92.1284 12.1238 92.1284 10.2238 93.3004 9.05283C94.4714 7.88083 96.3714 7.88083 97.5424 9.05283C101.036 12.5468 101.187 21.1588 97.9364 31.5288C94.1964 43.4548 86.4424 55.7188 76.1024 66.0588C66.0204 76.1408 55.1264 81.2498 45.5154 85.7588L43.7494 86.5878L39.7294 88.5388C39.3074 88.7438 38.8614 88.8408 38.4214 88.8408Z" fill="#3C663E"/>
<path d="M63.9985 104.995H63.9975C58.8695 104.994 55.8985 99.423 53.2775 94.508C52.3295 92.731 51.3535 90.901 50.5425 89.9C48.9945 90.462 47.3965 90.852 45.7695 91.065C45.1115 91.151 44.4175 91.195 43.7055 91.195C39.9915 91.195 32.5095 89.943 24.1255 81.559C15.3105 72.745 11.9645 61.884 13.9175 56.876C13.9425 56.813 13.9695 56.75 13.9985 56.688C14.3195 56.007 14.5455 55.387 14.7855 54.731C14.8865 54.452 14.9935 54.163 15.1095 53.86C14.0315 53.121 12.4025 52.277 10.8145 51.454C6.11551 49.018 0.788508 46.258 0.0785079 41.669C-0.290492 39.284 0.642509 36.954 2.85151 34.745C10.0505 27.545 29.1005 22.226 37.2675 23.678C55.3785 7.532 81.8945 0 94.4525 0C98.6915 0 101.559 0.807 103.218 2.466C109.851 9.098 104.389 44.389 83.2425 67.358C83.9165 76.604 77.0475 95.072 70.0235 102.095C68.1005 104.019 66.0725 104.995 63.9985 104.995ZM51.3465 83.311C52.2285 83.311 53.0915 83.7 53.6755 84.418C53.9445 84.749 54.2035 85.038 54.4675 85.302C55.9655 86.8 57.2305 89.172 58.5705 91.684C59.9325 94.239 62.4695 98.994 63.9975 98.995C64.1475 98.995 64.7215 98.912 65.7815 97.853C71.6915 91.942 78.4905 73.454 77.1485 66.942C76.9495 65.976 77.2375 64.974 77.9205 64.261C99.6205 41.61 101.568 10.068 98.9425 6.673C98.7485 6.52 97.4675 6 94.4525 6C82.0925 6 56.3395 14.056 40.1335 29.182C39.2985 29.96 38.0925 30.198 37.0255 29.795C36.6655 29.658 35.8025 29.43 34.0755 29.43C26.3945 29.43 12.1505 33.93 7.09251 38.988C6.22551 39.856 5.96351 40.468 6.00751 40.752C6.25251 42.333 11.0155 44.802 13.5755 46.128C16.2005 47.489 18.6815 48.774 20.2085 50.302C20.3915 50.484 20.5735 50.652 20.7545 50.814C21.7895 51.736 22.0585 53.248 21.4035 54.471C20.9755 55.269 20.7185 55.974 20.4215 56.789C20.1715 57.474 19.8885 58.248 19.4835 59.123C18.8185 61.11 20.4955 69.444 28.3675 77.317C35.2225 84.172 40.9195 85.195 43.7045 85.195C44.1565 85.195 44.5885 85.168 44.9895 85.116C46.7345 84.887 48.4385 84.379 50.0525 83.606C50.4665 83.407 50.9095 83.311 51.3465 83.311Z" fill="#12091E"/>
<path d="M63.2666 53.917C69.6179 53.917 74.7666 48.7683 74.7666 42.417C74.7666 36.0657 69.6179 30.917 63.2666 30.917C56.9153 30.917 51.7666 36.0657 51.7666 42.417C51.7666 48.7683 56.9153 53.917 63.2666 53.917Z" fill="#FFD0E4"/>
<path d="M63.2665 55.917C59.6605 55.917 56.2705 54.513 53.7205 51.962C48.4565 46.698 48.4565 38.134 53.7205 32.87C56.2705 30.32 59.6605 28.916 63.2665 28.916C66.8725 28.916 70.2625 30.32 72.8125 32.87C78.0755 38.134 78.0755 46.698 72.8125 51.962C70.2625 54.513 66.8725 55.917 63.2665 55.917ZM63.2665 32.917C60.7285 32.917 58.3435 33.905 56.5485 35.699C52.8445 39.403 52.8445 45.43 56.5485 49.135C58.3425 50.929 60.7285 51.918 63.2665 51.918C65.8045 51.918 68.1895 50.93 69.9845 49.135C73.6885 45.431 73.6885 39.404 69.9845 35.699C68.1895 33.905 65.8035 32.917 63.2665 32.917Z" fill="#12091E"/>
<path d="M67.9683 9.47914C70.8313 15.7671 74.0863 22.4241 78.8893 26.8221C84.5253 31.9821 90.2483 34.7301 96.5833 37.2611C102.918 21.4641 103.885 7.37614 101.096 4.58714C97.8763 1.36714 83.5043 3.07514 67.9683 9.47914Z" fill="#FFD0E4"/>
<path d="M96.5832 39.261C96.3362 39.261 96.0852 39.215 95.8412 39.118C88.9372 36.36 83.1822 33.464 77.5392 28.297C72.4732 23.658 69.1342 16.867 66.1482 10.308C65.9232 9.81398 65.9092 9.24898 66.1092 8.74398C66.3082 8.23898 66.7052 7.83698 67.2072 7.62998C77.2762 3.47898 87.5342 1.00098 94.6462 1.00098C98.4772 1.00098 101.049 1.71098 102.511 3.17298C106.407 7.06798 104.581 22.694 98.4412 38.006C98.1262 38.786 97.3762 39.261 96.5832 39.261ZM70.6642 10.554C73.2582 16.117 76.1902 21.638 80.2402 25.347C84.9582 29.667 89.6552 32.217 95.4572 34.641C101.41 18.901 101.177 7.49698 99.6822 6.00098C99.5152 5.83398 98.4872 5.00098 94.6452 5.00098C88.5702 5.00098 79.5312 7.10698 70.6642 10.554Z" fill="#12091E"/>
</svg>
