<svg width="347" height="98" viewBox="0 0 347 98" fill="none" xmlns="http://www.w3.org/2000/svg">
<path d="M23.3733 0.200012H0.86665V45H23.3733C41.6133 45 48.0133 35.4533 48.0133 22.6C48.0133 9.69334 41.6133 0.200012 23.3733 0.200012ZM23.3733 32.6267H15.6933V12.5733H23.3733C29.1333 12.5733 33.1867 15.4 33.1867 22.6C33.1867 29.7467 29.1333 32.6267 23.3733 32.6267Z" fill="#EB5C98"/>
<path d="M83.7917 45H99.045L82.565 0.200012H61.8717L45.3917 45H60.645L62.6183 39.08H81.8183L83.7917 45ZM66.245 28.1467L70.9383 14.0667H73.4983L78.1917 28.1467H66.245Z" fill="#EB5C98"/>
<path d="M138.837 0.200012H91.85V12.52H107.957V45H122.73V12.52H138.837V0.200012Z" fill="#EB5C98"/>
<path d="M170.042 45H185.295L168.815 0.200012H148.122L131.642 45H146.895L148.868 39.08H168.068L170.042 45ZM152.495 28.1467L157.188 14.0667H159.748L164.442 28.1467H152.495Z" fill="#EB5C98"/>
<path d="M191.622 45H212.315L228.795 0.200012H213.542L202.768 31.1333H201.168L190.395 0.200012H175.142L191.622 45Z" fill="#EB5C98"/>
<path d="M230.929 45H245.702V0.200012H230.929V45Z" fill="#EB5C98"/>
<path d="M248.629 45H290.442V32.68H267.509V31.56L290.762 12.0933V0.200012H249.162V12.52H271.562V13.64L248.629 33.1067V45Z" fill="#EB5C98"/>
<path d="M346.114 16.7333H333.367V3.98668H321.047V16.7333H308.354V28.4133H321.047V41.1067H333.367V28.4133H346.114V16.7333Z" fill="#EB5C98"/>
<path d="M25.24 97.4933C36.28 97.4933 47.3733 92.6934 48.8667 77.44H34.7867C33.56 82.4534 30.0933 84.7467 25.24 84.7467C19.3733 84.7467 14.7333 80.3733 14.7333 73.6C14.7333 66.8267 19.3733 62.4533 25.24 62.4533C30.0933 62.4533 33.56 64.7467 34.7867 69.6534H48.8667C47.3733 54.5067 36.1733 49.7067 25.24 49.7067C10.1466 49.7067 0.0666504 59.2533 0.0666504 73.6C0.0666504 87.9467 10.1466 97.4933 25.24 97.4933Z" fill="#EB5C98"/>
<path d="M85.4167 96H100.67L84.19 51.2H63.4967L47.0167 96H62.27L64.2433 90.08H83.4433L85.4167 96ZM67.87 79.1467L72.5633 65.0667H75.1233L79.8167 79.1467H67.87Z" fill="#EB5C98"/>
<path d="M102.804 96H117.204V71.7867H118.537L133.791 96H150.377V51.2H135.977V75.4133H134.644L119.764 51.2H102.804V96Z" fill="#EB5C98"/>
<path d="M178.49 97.4933C189.53 97.4933 200.623 92.6934 202.117 77.44H188.037C186.81 82.4534 183.343 84.7467 178.49 84.7467C172.623 84.7467 167.983 80.3733 167.983 73.6C167.983 66.8267 172.623 62.4533 178.49 62.4533C183.343 62.4533 186.81 64.7467 188.037 69.6534H202.117C200.623 54.5067 189.423 49.7067 178.49 49.7067C163.397 49.7067 153.317 59.2533 153.317 73.6C153.317 87.9467 163.397 97.4933 178.49 97.4933Z" fill="#EB5C98"/>
<path d="M205.054 96H245.427V84.16H219.827V78.4533H244.467V68.7467H219.827V63.04H245.427V51.2H205.054V96Z" fill="#EB5C98"/>
<path d="M295.739 96L287.739 81.28C291.526 78.6133 294.246 74.3467 294.246 68.32C294.246 56.5333 287.259 51.2 274.832 51.2H249.179V96H263.952V84.4267H275.152L281.232 96H295.739ZM263.952 63.4667H273.819C277.552 63.4667 279.472 65.28 279.472 68.4267C279.472 71.5733 277.552 73.3867 273.819 73.3867H263.952V63.4667Z" fill="#EB5C98"/>
</svg>
