<svg width="347" height="98" viewBox="0 0 347 98" fill="none" xmlns="http://www.w3.org/2000/svg">
<path d="M23.3067 0.200012H0.8V45H23.3067C41.5467 45 47.9467 35.4533 47.9467 22.6C47.9467 9.69334 41.5467 0.200012 23.3067 0.200012ZM23.3067 32.6267H15.6267V12.5733H23.3067C29.0667 12.5733 33.12 15.4 33.12 22.6C33.12 29.7467 29.0667 32.6267 23.3067 32.6267Z" fill="#F8F3FF"/>
<path d="M83.725 45H98.9783L82.4983 0.200012H61.805L45.325 45H60.5783L62.5517 39.08H81.7517L83.725 45ZM66.1783 28.1467L70.8717 14.0667H73.4317L78.125 28.1467H66.1783Z" fill="#F8F3FF"/>
<path d="M138.77 0.200012H91.7833V12.52H107.89V45H122.663V12.52H138.77V0.200012Z" fill="#F8F3FF"/>
<path d="M169.975 45H185.228L168.748 0.200012H148.055L131.575 45H146.828L148.802 39.08H168.002L169.975 45ZM152.428 28.1467L157.122 14.0667H159.682L164.375 28.1467H152.428Z" fill="#F8F3FF"/>
<path d="M191.555 45H212.248L228.728 0.200012H213.475L202.702 31.1333H201.102L190.328 0.200012H175.075L191.555 45Z" fill="#F8F3FF"/>
<path d="M230.863 45H245.636V0.200012H230.863V45Z" fill="#F8F3FF"/>
<path d="M248.562 45H290.376V32.68H267.442V31.56L290.696 12.0933V0.200012H249.096V12.52H271.496V13.64L248.562 33.1067V45Z" fill="#F8F3FF"/>
<path d="M346.047 16.7333H333.301V3.98668H320.981V16.7333H308.287V28.4133H320.981V41.1067H333.301V28.4133H346.047V16.7333Z" fill="#F8F3FF"/>
<path d="M25.1733 97.4933C36.2133 97.4933 47.3067 92.6934 48.8 77.44H34.72C33.4933 82.4534 30.0267 84.7467 25.1733 84.7467C19.3067 84.7467 14.6667 80.3733 14.6667 73.6C14.6667 66.8267 19.3067 62.4533 25.1733 62.4533C30.0267 62.4533 33.4933 64.7467 34.72 69.6534H48.8C47.3067 54.5067 36.1067 49.7067 25.1733 49.7067C10.08 49.7067 0 59.2533 0 73.6C0 87.9467 10.08 97.4933 25.1733 97.4933Z" fill="#F8F3FF"/>
<path d="M85.35 96H100.603L84.1233 51.2H63.43L46.95 96H62.2033L64.1767 90.08H83.3767L85.35 96ZM67.8033 79.1467L72.4967 65.0667H75.0567L79.75 79.1467H67.8033Z" fill="#F8F3FF"/>
<path d="M102.738 96H117.137V71.7867H118.471L133.724 96H150.311V51.2H135.911V75.4133H134.577L119.698 51.2H102.738V96Z" fill="#F8F3FF"/>
<path d="M178.423 97.4933C189.463 97.4933 200.557 92.6934 202.05 77.44H187.97C186.743 82.4534 183.277 84.7467 178.423 84.7467C172.557 84.7467 167.917 80.3733 167.917 73.6C167.917 66.8267 172.557 62.4533 178.423 62.4533C183.277 62.4533 186.743 64.7467 187.97 69.6534H202.05C200.557 54.5067 189.357 49.7067 178.423 49.7067C163.33 49.7067 153.25 59.2533 153.25 73.6C153.25 87.9467 163.33 97.4933 178.423 97.4933Z" fill="#F8F3FF"/>
<path d="M204.988 96H245.361V84.16H219.761V78.4533H244.401V68.7467H219.761V63.04H245.361V51.2H204.988V96Z" fill="#F8F3FF"/>
<path d="M295.672 96L287.672 81.28C291.459 78.6133 294.179 74.3467 294.179 68.32C294.179 56.5333 287.192 51.2 274.766 51.2H249.113V96H263.886V84.4267H275.086L281.166 96H295.672ZM263.886 63.4667H273.752C277.486 63.4667 279.406 65.28 279.406 68.4267C279.406 71.5733 277.486 73.3867 273.752 73.3867H263.886V63.4667Z" fill="#F8F3FF"/>
</svg>
