<svg width="156" height="156" viewBox="0 0 156 156" fill="none" xmlns="http://www.w3.org/2000/svg">
<rect width="156" height="156" fill="#F1BF00"/>
<path opacity="0.4" d="M78.0001 85.179C64.7658 85.179 54.0374 74.4506 54.0374 61.2163C54.0374 47.9821 64.7658 37.2537 78.0001 37.2537C91.2343 37.2537 101.963 47.9821 101.963 61.2163C101.963 74.4506 91.2343 85.179 78.0001 85.179ZM78.0001 77.8059C87.1622 77.8059 94.5896 70.3785 94.5896 61.2163C94.5896 52.0542 87.1622 44.6268 78.0001 44.6268C68.8379 44.6268 61.4105 52.0542 61.4105 61.2163C61.4105 70.3785 68.8379 77.8059 78.0001 77.8059ZM44.8209 122.045H37.4478V107.298C37.4478 97.1206 45.704 88.8656 55.8778 88.8656H100.122C110.296 88.8656 118.552 97.1299 118.552 107.298V122.045H111.179V107.298C111.179 101.2 106.222 96.2387 100.122 96.2387H55.8778C49.7759 96.2387 44.8209 101.193 44.8209 107.298V122.045Z" fill="black"/>
</svg>
